<svg width="16" height="17" viewBox="0 0 16 17" fill="none" xmlns="http://www.w3.org/2000/svg">
<path d="M6.62065 15.2692C6.62065 15.5127 6.55593 15.7506 6.43468 15.953C6.31344 16.1554 6.1411 16.3132 5.93947 16.4063C5.73785 16.4995 5.51598 16.5238 5.30193 16.4763C5.08789 16.4289 4.89127 16.3116 4.73695 16.1395C4.58264 15.9674 4.47754 15.7481 4.43497 15.5093C4.39239 15.2706 4.41424 15.0231 4.49776 14.7982C4.58127 14.5733 4.72271 14.3811 4.90417 14.2459C5.08563 14.1106 5.29896 14.0385 5.51721 14.0385C5.80986 14.0385 6.09052 14.1681 6.29746 14.3989C6.50439 14.6298 6.62065 14.9428 6.62065 15.2692ZM12.6896 14.0385C12.4713 14.0385 12.258 14.1106 12.0765 14.2459C11.8951 14.3811 11.7536 14.5733 11.6701 14.7982C11.5866 15.0231 11.5648 15.2706 11.6073 15.5093C11.6499 15.7481 11.755 15.9674 11.9093 16.1395C12.0636 16.3116 12.2603 16.4289 12.4743 16.4763C12.6883 16.5238 12.9102 16.4995 13.1118 16.4063C13.3135 16.3132 13.4858 16.1554 13.607 15.953C13.7283 15.7506 13.793 15.5127 13.793 15.2692C13.793 14.9428 13.6768 14.6298 13.4698 14.3989C13.2629 14.1681 12.9822 14.0385 12.6896 14.0385ZM15.9799 4.35692L14.2116 11.4554C14.1144 11.8431 13.9065 12.185 13.6194 12.429C13.3322 12.6731 12.9816 12.806 12.6206 12.8077H5.8041C5.44205 12.8075 5.09 12.6753 4.80162 12.4311C4.51325 12.1869 4.30438 11.8443 4.20687 11.4554L1.78757 1.73077H0.55172C0.405395 1.73077 0.265063 1.66593 0.161595 1.55053C0.0581275 1.43512 0 1.27859 0 1.11538C0 0.952174 0.0581275 0.795649 0.161595 0.680242C0.265063 0.564835 0.405395 0.5 0.55172 0.5H2.20688C2.3275 0.499974 2.44481 0.54404 2.54084 0.625451C2.63687 0.706862 2.70634 0.821133 2.7386 0.950769L3.39239 3.57692H15.4482C15.5332 3.5769 15.6171 3.59882 15.6933 3.64096C15.7695 3.6831 15.836 3.74432 15.8875 3.81984C15.9389 3.89536 15.9741 3.98313 15.9901 4.0763C16.0061 4.16947 16.0026 4.26551 15.9799 4.35692ZM14.722 4.80769H3.69929L5.27238 11.1262C5.30465 11.2558 5.37411 11.3701 5.47014 11.4515C5.56617 11.5329 5.68348 11.5769 5.8041 11.5769H12.6206C12.7412 11.5769 12.8585 11.5329 12.9546 11.4515C13.0506 11.3701 13.1201 11.2558 13.1523 11.1262L14.722 4.80769Z" fill="white"/>
</svg>
