<svg width="18" height="17" viewBox="0 0 18 17" fill="none" xmlns="http://www.w3.org/2000/svg">
<path d="M17.125 8.5C17.125 6.89303 16.6485 5.32214 15.7557 3.986C14.8629 2.64985 13.594 1.60844 12.1093 0.993482C10.6247 0.37852 8.99099 0.217618 7.41489 0.531123C5.83879 0.844628 4.39106 1.61846 3.25476 2.75476C2.11846 3.89106 1.34463 5.3388 1.03112 6.91489C0.717615 8.49099 0.878517 10.1247 1.49348 11.6093C2.10844 13.094 3.14984 14.3629 4.48599 15.2557C5.82214 16.1485 7.39303 16.625 9 16.625C11.1542 16.6227 13.2195 15.766 14.7427 14.2427C16.266 12.7195 17.1227 10.6542 17.125 8.5ZM2.125 8.5C2.125 7.14026 2.52821 5.81105 3.28365 4.68046C4.03908 3.54987 5.11281 2.66868 6.36905 2.14833C7.62529 1.62798 9.00763 1.49183 10.3412 1.7571C11.6749 2.02238 12.8999 2.67716 13.8614 3.63864C14.8228 4.60013 15.4776 5.82514 15.7429 7.15876C16.0082 8.49238 15.872 9.87471 15.3517 11.131C14.8313 12.3872 13.9501 13.4609 12.8195 14.2164C11.689 14.9718 10.3597 15.375 9 15.375C7.17727 15.3729 5.42979 14.6479 4.14092 13.3591C2.85206 12.0702 2.12707 10.3227 2.125 8.5ZM9.44219 10.8172C9.38414 10.8753 9.31521 10.9214 9.23934 10.9529C9.16346 10.9843 9.08213 11.0005 9 11.0005C8.91787 11.0005 8.83654 10.9843 8.76066 10.9529C8.68479 10.9214 8.61586 10.8753 8.55781 10.8172L5.43281 7.69219C5.37474 7.63412 5.32868 7.56518 5.29725 7.48931C5.26583 7.41344 5.24965 7.33212 5.24965 7.25C5.24965 7.16788 5.26583 7.08656 5.29725 7.01069C5.32868 6.93482 5.37474 6.86588 5.43281 6.80782C5.49088 6.74975 5.55982 6.70368 5.63569 6.67226C5.71156 6.64083 5.79288 6.62466 5.875 6.62466C5.95712 6.62466 6.03844 6.64083 6.11431 6.67226C6.19018 6.70368 6.25912 6.74975 6.31719 6.80782L9 9.49141L11.6828 6.80782C11.8001 6.69054 11.9591 6.62466 12.125 6.62466C12.2909 6.62466 12.4499 6.69054 12.5672 6.80782C12.6845 6.92509 12.7503 7.08415 12.7503 7.25C12.7503 7.41586 12.6845 7.57492 12.5672 7.69219L9.44219 10.8172Z" fill="#202020"/>
</svg>
