<svg width="42" height="43" viewBox="0 0 42 43" fill="none" xmlns="http://www.w3.org/2000/svg">
<rect x="0.5" y="1.36523" width="41" height="41" rx="20.5" stroke="#F3F3F3"/>
<path d="M30 14.3652H12C11.8011 14.3652 11.6103 14.4443 11.4697 14.5849C11.329 14.7256 11.25 14.9163 11.25 15.1152V27.8652C11.25 28.2631 11.408 28.6446 11.6893 28.9259C11.9706 29.2072 12.3522 29.3652 12.75 29.3652H29.25C29.6478 29.3652 30.0294 29.2072 30.3107 28.9259C30.592 28.6446 30.75 28.2631 30.75 27.8652V15.1152C30.75 14.9163 30.671 14.7256 30.5303 14.5849C30.3897 14.4443 30.1989 14.3652 30 14.3652ZM28.0716 15.8652L21 22.348L13.9284 15.8652H28.0716ZM29.25 27.8652H12.75V16.8205L20.4928 23.9184C20.6312 24.0454 20.8122 24.1159 21 24.1159C21.1878 24.1159 21.3688 24.0454 21.5072 23.9184L29.25 16.8205V27.8652Z" fill="white"/>
</svg>
