<svg width="20" height="19" viewBox="0 0 20 19" fill="none" xmlns="http://www.w3.org/2000/svg">
<path d="M9.83691 0.875C5.07346 0.875 1.21191 4.73655 1.21191 9.5C1.21191 14.2635 5.07346 18.125 9.83691 18.125C14.6004 18.125 18.4619 14.2635 18.4619 9.5C18.4619 4.73655 14.6004 0.875 9.83691 0.875Z" stroke="white" stroke-width="1.39402"/>
<path d="M9.83691 9.5C11.4248 9.5 12.7119 8.21286 12.7119 6.625C12.7119 5.03719 11.4248 3.75 9.83691 3.75C8.24905 3.75 6.96191 5.03719 6.96191 6.625C6.96191 8.21286 8.24905 9.5 9.83691 9.5Z" stroke="white" stroke-width="1.39402"/>
<path d="M4.08691 15.9288C4.08691 14.3766 5.20981 12.375 6.96191 12.375H12.7119C14.464 12.375 15.5869 14.3766 15.5869 15.9288" stroke="white" stroke-width="1.39402"/>
</svg>
