<svg width="20" height="19" viewBox="0 0 20 19" fill="none" xmlns="http://www.w3.org/2000/svg">
<path d="M15.1285 14.2917H5.06604L3.14937 0.875H0.75354" stroke="white" stroke-width="1.14056" stroke-linecap="round" stroke-linejoin="round"/>
<path d="M3.42383 2.79169H18.9625L16.0875 11.4167H4.65597" stroke="white" stroke-width="1.14056" stroke-linecap="round" stroke-linejoin="round"/>
<path d="M7.46244 18.125C8.52102 18.125 9.37911 17.2669 9.37911 16.2083C9.37911 15.1497 8.52102 14.2916 7.46244 14.2916C6.4039 14.2916 5.54578 15.1497 5.54578 16.2083C5.54578 17.2669 6.4039 18.125 7.46244 18.125Z" stroke="white" stroke-width="1.14056" stroke-linecap="round" stroke-linejoin="round"/>
<path d="M15.1287 18.125C16.1873 18.125 17.0454 17.2669 17.0454 16.2083C17.0454 15.1497 16.1873 14.2916 15.1287 14.2916C14.0701 14.2916 13.212 15.1497 13.212 16.2083C13.212 17.2669 14.0701 18.125 15.1287 18.125Z" stroke="white" stroke-width="1.14056" stroke-linecap="round" stroke-linejoin="round"/>
</svg>
