<svg width="25" height="25" viewBox="0 0 25 25" fill="none" xmlns="http://www.w3.org/2000/svg">
<path d="M9.90021 24.0001V16.0001H15.9002V24.0001H23.9002V12.0001C23.9003 11.8687 23.8745 11.7386 23.8243 11.6172C23.7742 11.4958 23.7005 11.3855 23.6077 11.2926L13.6077 1.29255C13.5148 1.19958 13.4045 1.12582 13.2831 1.07549C13.1617 1.02517 13.0316 0.999268 12.9002 0.999268C12.7688 0.999268 12.6387 1.02517 12.5173 1.07549C12.3959 1.12582 12.2856 1.19958 12.1927 1.29255L2.19271 11.2926C2.09987 11.3855 2.02626 11.4958 1.97607 11.6172C1.92588 11.7386 1.9001 11.8687 1.90021 12.0001V24.0001H9.90021Z" stroke="white" stroke-width="2" stroke-linecap="round" stroke-linejoin="round"/>
</svg>
