<svg width="43" height="43" viewBox="0 0 43 43" fill="none" xmlns="http://www.w3.org/2000/svg">
<rect x="0.5" y="0.615234" width="41.7497" height="41.7498" rx="20.8748" stroke="#F3F3F3"/>
<path d="M23.2753 13.421C23.3008 13.3258 23.3447 13.2366 23.4047 13.1584C23.4647 13.0802 23.5394 13.0146 23.6248 12.9653C23.7101 12.916 23.8043 12.8841 23.902 12.8712C23.9996 12.8583 24.0989 12.8648 24.1941 12.8904C25.5844 13.2531 26.853 13.98 27.869 14.996C28.8851 16.0121 29.6119 17.2806 29.9747 18.671C30.0002 18.7661 30.0067 18.8654 29.9939 18.9631C29.981 19.0608 29.949 19.155 29.8997 19.2403C29.8505 19.3256 29.7849 19.4004 29.7067 19.4604C29.6285 19.5203 29.5393 19.5643 29.4441 19.5897C29.3807 19.6064 29.3155 19.6149 29.25 19.615C29.0847 19.615 28.9241 19.5604 28.793 19.4597C28.662 19.359 28.5679 19.2179 28.5253 19.0582C28.2295 17.9232 27.6363 16.8876 26.8069 16.0582C25.9775 15.2288 24.9419 14.6356 23.8069 14.3397C23.7116 14.3144 23.6223 14.2705 23.544 14.2106C23.4657 14.1507 23.4 14.0759 23.3506 13.9906C23.3013 13.9052 23.2692 13.811 23.2563 13.7133C23.2433 13.6155 23.2498 13.5162 23.2753 13.421ZM23.0569 17.3397C24.3497 17.6847 25.1803 18.5154 25.5253 19.8082C25.5679 19.9679 25.662 20.109 25.793 20.2097C25.9241 20.3104 26.0847 20.365 26.25 20.365C26.3155 20.3649 26.3807 20.3564 26.4441 20.3397C26.5393 20.3143 26.6285 20.2703 26.7067 20.2104C26.7849 20.1504 26.8505 20.0756 26.8997 19.9903C26.949 19.905 26.981 19.8108 26.9939 19.7131C27.0067 19.6154 27.0002 19.5161 26.9747 19.421C26.4947 17.6247 25.2403 16.3704 23.4441 15.8904C23.2519 15.839 23.0471 15.8661 22.8749 15.9657C22.7027 16.0653 22.5771 16.2293 22.5258 16.4215C22.4744 16.6136 22.5016 16.8184 22.6012 16.9906C22.7008 17.1628 22.8647 17.2884 23.0569 17.3397ZM30.7388 26.2788C30.5716 27.5491 29.9477 28.7152 28.9837 29.5592C28.0196 30.4031 26.7813 30.8673 25.5 30.865C18.0563 30.865 12 24.8088 12 17.365C11.9977 16.0838 12.4619 14.8454 13.3059 13.8814C14.1499 12.9173 15.3159 12.2935 16.5863 12.1263C16.9075 12.0871 17.2328 12.1528 17.5136 12.3136C17.7944 12.4745 18.0157 12.7219 18.1444 13.0188L20.1244 17.4391V17.4504C20.2229 17.6777 20.2636 17.9258 20.2428 18.1727C20.222 18.4195 20.1404 18.6574 20.0053 18.865C19.9884 18.8904 19.9706 18.9138 19.9519 18.9372L18 21.251C18.7022 22.6779 20.1947 24.1572 21.6403 24.8613L23.9222 22.9197C23.9446 22.9009 23.9681 22.8834 23.9925 22.8672C24.2 22.7289 24.4387 22.6444 24.687 22.6215C24.9353 22.5986 25.1854 22.6379 25.4147 22.736L25.4269 22.7416L29.8434 24.7207C30.1409 24.8489 30.3889 25.07 30.5503 25.3508C30.7116 25.6317 30.7778 25.9572 30.7388 26.2788ZM29.25 26.0913C29.25 26.0913 29.2434 26.0913 29.2397 26.0913L24.8334 24.1179L22.5506 26.0594C22.5285 26.0782 22.5053 26.0957 22.4813 26.1119C22.2654 26.2559 22.0159 26.3415 21.7571 26.3602C21.4983 26.3789 21.239 26.3302 21.0047 26.2188C19.2488 25.3704 17.4984 23.6332 16.6491 21.896C16.5366 21.6633 16.4861 21.4056 16.5026 21.1477C16.519 20.8899 16.6017 20.6406 16.7428 20.4241C16.7587 20.3987 16.7766 20.3746 16.7963 20.3519L18.75 18.0354L16.7813 13.6291C16.7809 13.6254 16.7809 13.6216 16.7813 13.6179C15.8721 13.7364 15.0374 14.1824 14.4334 14.8722C13.8294 15.5619 13.4976 16.4482 13.5 17.365C13.5035 20.5466 14.7689 23.5968 17.0186 25.8465C19.2682 28.0962 22.3185 29.3616 25.5 29.365C26.4163 29.3682 27.3023 29.0375 27.9925 28.4348C28.6827 27.8321 29.1297 26.9987 29.25 26.0904V26.0913Z" fill="white"/>
</svg>
