<svg width="24" height="24" viewBox="0 0 24 24" fill="none" xmlns="http://www.w3.org/2000/svg">
<g clip-path="url(#clip0_53_2179)">
<path d="M7.5 12.6439L15.9619 20.0624C16.0593 20.1484 16.1775 20.2076 16.3047 20.2341C16.432 20.2607 16.5639 20.2537 16.6877 20.2139C16.8114 20.1742 16.9227 20.1029 17.0106 20.0071C17.0985 19.9113 17.16 19.7944 17.1891 19.6677L21 3.11425C21.0037 3.09765 21.0029 3.08035 20.9975 3.06421C20.9921 3.04807 20.9825 3.03369 20.9696 3.02261C20.9567 3.01153 20.941 3.00417 20.9242 3.00132C20.9074 2.99848 20.8902 3.00024 20.8744 3.00644L1.875 10.4418C1.75705 10.4871 1.65701 10.5696 1.5899 10.6767C1.52278 10.7838 1.49221 10.9097 1.50278 11.0357C1.51334 11.1616 1.56447 11.2807 1.64849 11.3751C1.73251 11.4695 1.84489 11.5341 1.96875 11.5593L7.5 12.6439Z" stroke="white" stroke-width="2" stroke-linecap="round" stroke-linejoin="round"/>
<path d="M7.5 12.6444L20.9447 3.00879" stroke="white" stroke-width="2" stroke-linecap="round" stroke-linejoin="round"/>
<path d="M11.6597 16.2923L8.79 19.2698C8.68631 19.3774 8.55285 19.4516 8.40673 19.4828C8.26061 19.514 8.10849 19.5009 7.96989 19.4451C7.83128 19.3893 7.7125 19.2934 7.62878 19.1696C7.54507 19.0458 7.50022 18.8999 7.5 18.7505V12.6445" stroke="white" stroke-width="2" stroke-linecap="round" stroke-linejoin="round"/>
</g>
<defs>
<clipPath id="clip0_53_2179">
<rect width="24" height="24" fill="white"/>
</clipPath>
</defs>
</svg>
