<svg width="19" height="20" viewBox="0 0 19 20" fill="none" xmlns="http://www.w3.org/2000/svg">
<path d="M11.5253 1.80593C11.5508 1.71075 11.5947 1.62151 11.6547 1.54333C11.7147 1.46514 11.7894 1.39954 11.8748 1.35026C11.9601 1.30098 12.0543 1.269 12.152 1.25614C12.2496 1.24328 12.3489 1.24979 12.4441 1.27531C13.8344 1.63807 15.103 2.36491 16.119 3.38096C17.1351 4.39702 17.8619 5.66556 18.2247 7.05593C18.2502 7.1511 18.2567 7.25036 18.2439 7.34805C18.231 7.44573 18.199 7.53993 18.1497 7.62525C18.1005 7.71057 18.0349 7.78534 17.9567 7.8453C17.8785 7.90526 17.7893 7.94922 17.6941 7.97468C17.6307 7.99132 17.5655 7.99983 17.5 7.99999C17.3347 7.99999 17.1741 7.94539 17.043 7.84469C16.912 7.74399 16.8179 7.60282 16.7753 7.44312C16.4795 6.30811 15.8863 5.27253 15.0569 4.44314C14.2275 3.61375 13.1919 3.02054 12.0569 2.72468C11.9616 2.69932 11.8723 2.65543 11.794 2.59552C11.7157 2.5356 11.65 2.46084 11.6006 2.37551C11.5513 2.29018 11.5192 2.19595 11.5063 2.09822C11.4933 2.00048 11.4998 1.90116 11.5253 1.80593ZM11.3069 5.72468C12.5997 6.06968 13.4303 6.90031 13.7753 8.19312C13.8179 8.35282 13.912 8.49399 14.043 8.59469C14.1741 8.69539 14.3347 8.74999 14.5 8.74999C14.5655 8.74983 14.6307 8.74132 14.6941 8.72468C14.7893 8.69922 14.8785 8.65526 14.9567 8.5953C15.0349 8.53534 15.1005 8.46057 15.1497 8.37525C15.199 8.28993 15.231 8.19573 15.2439 8.09805C15.2567 8.00036 15.2502 7.9011 15.2247 7.80593C14.7447 6.00968 13.4903 4.75531 11.6941 4.27531C11.5019 4.22396 11.2971 4.25107 11.1249 4.35067C10.9527 4.45027 10.8271 4.6142 10.7758 4.8064C10.7244 4.9986 10.7516 5.20332 10.8512 5.37553C10.9508 5.54774 11.1147 5.67334 11.3069 5.72468ZM18.9888 14.6637C18.8216 15.9341 18.1977 17.1001 17.2337 17.9441C16.2696 18.7881 15.0313 19.2523 13.75 19.25C6.30626 19.25 0.250008 13.1937 0.250008 5.74999C0.247712 4.4687 0.711903 3.23039 1.55588 2.26633C2.39986 1.30228 3.56592 0.678406 4.83626 0.511243C5.1575 0.472019 5.4828 0.537739 5.76362 0.698592C6.04444 0.859445 6.2657 1.1068 6.39438 1.40374L8.37438 5.82406V5.83531C8.4729 6.06261 8.51359 6.31077 8.49282 6.55763C8.47204 6.80449 8.39044 7.04236 8.25532 7.24999C8.23845 7.27531 8.22063 7.29874 8.20188 7.32218L6.25001 9.63593C6.9522 11.0628 8.4447 12.5422 9.89032 13.2462L12.1722 11.3047C12.1946 11.2858 12.2181 11.2683 12.2425 11.2522C12.45 11.1138 12.6887 11.0293 12.937 11.0064C13.1853 10.9835 13.4354 11.0229 13.6647 11.1209L13.6769 11.1266L18.0934 13.1056C18.3909 13.2338 18.6389 13.4549 18.8003 13.7358C18.9616 14.0166 19.0278 14.3422 18.9888 14.6637ZM17.5 14.4762C17.5 14.4762 17.4934 14.4762 17.4897 14.4762L13.0834 12.5028L10.8006 14.4444C10.7785 14.4631 10.7553 14.4807 10.7313 14.4969C10.5154 14.6409 10.2659 14.7264 10.0071 14.7452C9.74828 14.7639 9.48904 14.7152 9.2547 14.6037C7.49876 13.7553 5.74845 12.0181 4.89907 10.2809C4.7866 10.0483 4.73613 9.79055 4.75255 9.53267C4.76898 9.2748 4.85174 9.02554 4.99282 8.80906C5.00872 8.78364 5.02659 8.7595 5.04626 8.73687L7.00001 6.42031L5.03126 2.01406C5.03089 2.01032 5.03089 2.00655 5.03126 2.00281C4.12212 2.1214 3.28739 2.56733 2.68339 3.2571C2.0794 3.94687 1.74755 4.83316 1.75001 5.74999C1.75348 8.93153 3.01888 11.9818 5.26856 14.2314C7.51825 16.4811 10.5685 17.7465 13.75 17.75C14.6663 17.7531 15.5523 17.4225 16.2425 16.8198C16.9327 16.2171 17.3797 15.3837 17.5 14.4753V14.4762Z" fill="white"/>
</svg>
