<svg width="33" height="32" viewBox="0 0 33 32" fill="none" xmlns="http://www.w3.org/2000/svg">
<g clip-path="url(#clip0_716_7799)">
<path d="M16.9002 28C23.5276 28 28.9002 22.6274 28.9002 16C28.9002 9.37258 23.5276 4 16.9002 4C10.2728 4 4.90021 9.37258 4.90021 16C4.90021 22.6274 10.2728 28 16.9002 28Z" stroke="white" stroke-width="2" stroke-linecap="round" stroke-linejoin="round"/>
<path d="M16.9002 20C19.6616 20 21.9002 17.7614 21.9002 15C21.9002 12.2386 19.6616 10 16.9002 10C14.1388 10 11.9002 12.2386 11.9002 15C11.9002 17.7614 14.1388 20 16.9002 20Z" stroke="white" stroke-width="2" stroke-linecap="round" stroke-linejoin="round"/>
<path d="M8.87482 24.9212C9.6272 23.4393 10.7753 22.1946 12.1917 21.3251C13.6082 20.4557 15.2378 19.9955 16.8998 19.9955C18.5618 19.9955 20.1914 20.4557 21.6079 21.3251C23.0244 22.1946 24.1724 23.4393 24.9248 24.9212" stroke="white" stroke-width="2" stroke-linecap="round" stroke-linejoin="round"/>
</g>
<defs>
<clipPath id="clip0_716_7799">
<rect width="32" height="32" fill="white" transform="translate(0.900208)"/>
</clipPath>
</defs>
</svg>
