<svg width="31" height="30" viewBox="0 0 31 30" fill="none" xmlns="http://www.w3.org/2000/svg">
<g clip-path="url(#clip0_138_8985)">
<path d="M24.875 25.3125H6.125C5.87636 25.3125 5.6379 25.2137 5.46209 25.0379C5.28627 24.8621 5.1875 24.6236 5.1875 24.375V8.4375L7.0625 4.6875H23.9375L25.8125 8.4375V24.375C25.8125 24.6236 25.7137 24.8621 25.5379 25.0379C25.3621 25.2137 25.1236 25.3125 24.875 25.3125Z" stroke="black" stroke-linecap="round" stroke-linejoin="round"/>
<path d="M5.1875 8.4375H25.8125" stroke="black" stroke-linecap="round" stroke-linejoin="round"/>
<path d="M11.3266 13.9489L8.38086 17.8151L11.3266 21.6814" stroke="#FB002A" stroke-linecap="square" stroke-linejoin="round"/>
<path d="M22.7722 13.3044C22.7722 14.5007 22.3498 15.6481 21.5978 16.494C20.8459 17.3399 19.8261 17.8151 18.7627 17.8151H9.02539" stroke="#FB002A" stroke-linecap="square" stroke-linejoin="round"/>
</g>
<defs>
<clipPath id="clip0_138_8985">
<rect width="30" height="30" fill="white" transform="translate(0.5)"/>
</clipPath>
</defs>
</svg>
