<svg width="30" height="30" viewBox="0 0 30 30" fill="none" xmlns="http://www.w3.org/2000/svg">
<g clip-path="url(#clip0_138_9026)">
<path d="M15 11.25C16.0355 11.25 16.875 10.4105 16.875 9.375C16.875 8.33947 16.0355 7.5 15 7.5C13.9645 7.5 13.125 8.33947 13.125 9.375C13.125 10.4105 13.9645 11.25 15 11.25Z" fill="white"/>
<path d="M21.5625 9.375C21.5625 15.9375 15 19.6875 15 19.6875C15 19.6875 8.4375 15.9375 8.4375 9.375C8.4375 7.63452 9.1289 5.96532 10.3596 4.73461C11.5903 3.5039 13.2595 2.8125 15 2.8125C16.7405 2.8125 18.4097 3.5039 19.6404 4.73461C20.8711 5.96532 21.5625 7.63452 21.5625 9.375Z" stroke="white" stroke-width="1.5" stroke-linecap="round" stroke-linejoin="round"/>
<path d="M23.4375 18.1804C25.7484 19.0335 27.1875 20.2335 27.1875 21.5625C27.1875 24.1511 21.7312 26.25 15 26.25C8.26875 26.25 2.8125 24.1511 2.8125 21.5625C2.8125 20.2335 4.25156 19.0335 6.5625 18.1804" stroke="#FB002A" stroke-width="1.5" stroke-linecap="round" stroke-linejoin="round"/>
</g>
<defs>
<clipPath id="clip0_138_9026">
<rect width="30" height="30" fill="white"/>
</clipPath>
</defs>
</svg>
