<svg width="31" height="31" viewBox="0 0 31 31" fill="none" xmlns="http://www.w3.org/2000/svg">
<g clip-path="url(#clip0_119_6013)">
<path d="M6.88203 24.118C5.80391 23.0398 6.51875 20.7746 5.97031 19.448C5.40078 18.0781 3.3125 16.9648 3.3125 15.5C3.3125 14.0352 5.40078 12.9219 5.97031 11.552C6.51875 10.2266 5.80391 7.96016 6.88203 6.88203C7.96016 5.80391 10.2266 6.51875 11.552 5.97031C12.9277 5.40078 14.0352 3.3125 15.5 3.3125C16.9648 3.3125 18.0781 5.40078 19.448 5.97031C20.7746 6.51875 23.0398 5.80391 24.118 6.88203C25.1961 7.96016 24.4813 10.2254 25.0297 11.552C25.5992 12.9277 27.6875 14.0352 27.6875 15.5C27.6875 16.9648 25.5992 18.0781 25.0297 19.448C24.4813 20.7746 25.1961 23.0398 24.118 24.118C23.0398 25.1961 20.7746 24.4813 19.448 25.0297C18.0781 25.5992 16.9648 27.6875 15.5 27.6875C14.0352 27.6875 12.9219 25.5992 11.552 25.0297C10.2266 24.4813 7.96016 25.1961 6.88203 24.118Z" stroke="#202020" stroke-width="1.5" stroke-linecap="round" stroke-linejoin="round"/>
<path d="M10.8125 16.4375L13.625 19.25L20.1875 12.6875" stroke="#388E3C" stroke-width="1.5" stroke-linecap="round" stroke-linejoin="round"/>
</g>
<defs>
<clipPath id="clip0_119_6013">
<rect width="30" height="30" fill="white" transform="translate(0.5 0.5)"/>
</clipPath>
</defs>
</svg>
