<svg width="30" height="30" viewBox="0 0 30 30" fill="none" xmlns="http://www.w3.org/2000/svg">
<g clip-path="url(#clip0_138_8994)">
<path d="M14.9997 22.8129L20.386 26.1252C20.5258 26.21 20.6875 26.2515 20.8509 26.2444C21.0142 26.2374 21.1718 26.182 21.3036 26.0854C21.4355 25.9888 21.5358 25.8553 21.5919 25.7017C21.6479 25.5481 21.6571 25.3814 21.6184 25.2225L20.1537 19.0419L24.9474 14.9077C25.0696 14.8004 25.1577 14.6596 25.2009 14.5028C25.244 14.346 25.2403 14.18 25.1901 14.0252C25.14 13.8705 25.0456 13.7338 24.9187 13.6321C24.7918 13.5304 24.6378 13.4681 24.4759 13.4529L18.185 12.941L15.7616 7.07441C15.6998 6.92306 15.5944 6.79354 15.4587 6.70236C15.323 6.61119 15.1632 6.5625 14.9997 6.5625C14.8363 6.5625 14.6765 6.61119 14.5408 6.70236C14.4051 6.79354 14.2997 6.92306 14.2379 7.07441L11.8144 12.941L5.52358 13.4529C5.36054 13.4672 5.20533 13.5292 5.07735 13.6313C4.94937 13.7333 4.85429 13.8707 4.80398 14.0265C4.75368 14.1822 4.75038 14.3493 4.79451 14.5069C4.83863 14.6646 4.92822 14.8057 5.05208 14.9126L9.84578 19.0468L8.38109 25.2225C8.34237 25.3814 8.35161 25.5481 8.40763 25.7017C8.46365 25.8553 8.56394 25.9888 8.69584 26.0854C8.82773 26.182 8.9853 26.2374 9.14863 26.2444C9.31196 26.2515 9.47373 26.21 9.61348 26.1252L14.9997 22.8129Z" stroke="#202020" stroke-width="1.67993" stroke-linecap="round" stroke-linejoin="round"/>
<path d="M21.7877 6.29373L23.6736 8.21125L23.7236 5.58873L26.1566 4.47745L23.5958 3.57534L23.214 0.970571L21.581 3.03546L18.9122 2.53631L20.4636 4.71522L19.1957 7.01138L21.7877 6.29373Z" stroke="#FB002A" stroke-linecap="round" stroke-linejoin="round"/>
</g>
<defs>
<clipPath id="clip0_138_8994">
<rect width="30" height="30" fill="white"/>
</clipPath>
</defs>
</svg>
