<svg width="32" height="33" viewBox="0 0 32 33" fill="none" xmlns="http://www.w3.org/2000/svg">
<g clip-path="url(#clip0_138_8825)">
<path d="M25.0952 12.0714H29.0238C29.1709 12.0713 29.3146 12.1152 29.4366 12.1974C29.5586 12.2795 29.6532 12.3963 29.7084 12.5327L31.0001 15.7619" stroke="black" stroke-linecap="round" stroke-linejoin="round"/>
<path d="M10.3335 17.9762H25.0956" stroke="black" stroke-linecap="round" stroke-linejoin="round"/>
<path d="M25.8335 24.6191C27.0564 24.6191 28.0478 23.6277 28.0478 22.4048C28.0478 21.1819 27.0564 20.1905 25.8335 20.1905C24.6105 20.1905 23.6191 21.1819 23.6191 22.4048C23.6191 23.6277 24.6105 24.6191 25.8335 24.6191Z" stroke="black" stroke-linecap="round" stroke-linejoin="round"/>
<path d="M15.5 24.6191C16.7229 24.6191 17.7143 23.6277 17.7143 22.4048C17.7143 21.1819 16.7229 20.1905 15.5 20.1905C14.277 20.1905 13.2856 21.1819 13.2856 22.4048C13.2856 23.6277 14.277 24.6191 15.5 24.6191Z" stroke="black" stroke-linecap="round" stroke-linejoin="round"/>
<path d="M22.5716 21.7858H17.4287" stroke="black" stroke-linecap="round" stroke-linejoin="round"/>
<path d="M25.0952 15.7619H31.0001V21.6667C31.0001 21.8625 30.9223 22.0502 30.7839 22.1887C30.6455 22.3271 30.4577 22.4049 30.262 22.4049H28.0476" stroke="black" stroke-linecap="round" stroke-linejoin="round"/>
<path d="M13.2859 22.4048H11.0716C10.8758 22.4048 10.6881 22.3271 10.5497 22.1887C10.4113 22.0502 10.3335 21.8625 10.3335 21.6667V11.3333C10.3335 11.1375 10.4113 10.9498 10.5497 10.8113C10.6881 10.6729 10.8758 10.5952 11.0716 10.5952H25.0956V20.3169" stroke="black" stroke-linecap="round" stroke-linejoin="round"/>
<line y1="-0.574082" x2="10.3335" y2="-0.574082" transform="matrix(1 -8.74228e-08 -8.74228e-08 -1 0 15.1878)" stroke="url(#paint0_linear_138_8825)" stroke-width="1.14816"/>
<line y1="-0.574082" x2="5.16674" y2="-0.574082" transform="matrix(1 -8.74228e-08 -8.74228e-08 -1 5.74072 17.4841)" stroke="url(#paint1_linear_138_8825)" stroke-width="1.14816"/>
<line y1="-0.574082" x2="10.3335" y2="-0.574082" transform="matrix(1 -8.74228e-08 -8.74228e-08 -1 0 19.7805)" stroke="url(#paint2_linear_138_8825)" stroke-width="1.14816"/>
</g>
<defs>
<linearGradient id="paint0_linear_138_8825" x1="10.3335" y1="0.5" x2="0" y2="0.5" gradientUnits="userSpaceOnUse">
<stop stop-color="#FB002A"/>
<stop offset="1" stop-color="#FB002A" stop-opacity="0"/>
</linearGradient>
<linearGradient id="paint1_linear_138_8825" x1="5.16674" y1="0.5" x2="0" y2="0.5" gradientUnits="userSpaceOnUse">
<stop stop-color="#FB002A"/>
<stop offset="1" stop-color="#FB002A" stop-opacity="0"/>
</linearGradient>
<linearGradient id="paint2_linear_138_8825" x1="10.3335" y1="0.5" x2="0" y2="0.5" gradientUnits="userSpaceOnUse">
<stop stop-color="#FB002A"/>
<stop offset="1" stop-color="#FB002A" stop-opacity="0"/>
</linearGradient>
<clipPath id="clip0_138_8825">
<rect width="32" height="32" fill="white" transform="translate(0 0.5)"/>
</clipPath>
</defs>
</svg>
